<?xml version="1.0" standalone="no"?>
<!DOCTYPE svg PUBLIC "-//W3C//DTD SVG 20010904//EN"
 "http://www.w3.org/TR/2001/REC-SVG-20010904/DTD/svg10.dtd">
<svg version="1.0" xmlns="http://www.w3.org/2000/svg"
 width="1004.000000pt" height="321.000000pt" viewBox="0 0 1004.000000 321.000000"
 preserveAspectRatio="xMidYMid meet">

<g transform="translate(0.000000,321.000000) scale(0.100000,-0.100000)"
fill="#000000" stroke="none">
<path d="M537 3025 c-173 -48 -316 -192 -362 -366 -22 -80 -22 -2068 0 -2148
47 -176 190 -319 366 -366 45 -12 221 -15 1074 -15 668 0 1036 4 1065 11 176
40 339 203 379 379 14 62 14 2068 0 2130 -40 176 -203 339 -379 379 -73 17
-2081 13 -2143 -4z m1155 -423 c59 -141 113 -197 338 -345 495 -325 397 -1068
-169 -1271 -41 -15 -76 -24 -78 -22 -3 3 11 53 31 113 36 107 36 108 83 133
26 14 75 52 108 85 166 165 203 411 92 619 -77 145 -287 282 -337 221 -8 -10
-32 -166 -60 -388 -44 -349 -47 -367 -53 -297 -8 86 -26 747 -32 1170 l-5 285
26 -115 c14 -63 39 -148 56 -188z m-182 -329 c0 -131 -4 -244 -9 -252 -7 -11
-22 -4 -71 34 l-62 48 -41 -30 c-23 -16 -63 -55 -89 -87 -139 -173 -163 -380
-67 -574 77 -158 207 -251 383 -275 l88 -12 -6 -110 c-3 -60 -9 -229 -13 -375
-7 -279 -14 -290 -31 -50 -18 246 -59 319 -221 397 -53 25 -121 63 -151 84
-154 105 -262 283 -290 477 -30 202 32 401 184 595 36 47 66 89 66 93 0 5 -34
34 -75 63 -41 30 -75 58 -75 61 0 6 443 148 468 149 9 1 12 -53 12 -236z"/>
<path d="M7740 2149 c-93 -37 -113 -144 -41 -213 58 -56 169 -42 211 26 65
103 -54 233 -170 187z"/>
<path d="M3217 2084 c-16 -5 -17 -42 -15 -632 l3 -627 120 0 120 0 3 208 2
207 128 0 c183 0 283 14 358 49 73 34 145 97 180 158 37 63 55 179 43 278 -16
128 -71 215 -182 286 -90 59 -153 68 -469 74 -150 2 -281 2 -291 -1z m612
-234 c64 -36 96 -100 95 -194 0 -82 -16 -120 -69 -163 -49 -40 -113 -53 -271
-53 l-134 0 0 221 0 221 168 -4 c156 -3 170 -5 211 -28z"/>
<path d="M7075 1987 c-3 -6 -6 -59 -7 -117 l-3 -105 -70 -5 -70 -5 0 -85 0
-85 70 -5 70 -5 5 -300 c4 -199 9 -309 17 -327 21 -48 83 -106 131 -125 57
-22 240 -25 264 -5 19 15 29 84 20 137 l-7 40 -61 0 c-75 0 -109 20 -124 74
-6 24 -9 131 -8 273 l3 233 100 5 100 5 0 85 0 85 -100 5 -100 5 -3 108 c-2
74 -7 109 -15 112 -7 2 -56 6 -110 9 -72 4 -99 2 -102 -7z"/>
<path d="M5255 1773 c-74 -10 -156 -46 -205 -90 -80 -72 -128 -190 -84 -207 9
-3 51 -6 95 -6 87 0 83 -2 152 84 22 28 39 37 83 46 116 24 203 -11 225 -92
22 -85 9 -95 -171 -123 -136 -21 -266 -53 -310 -76 -63 -31 -116 -99 -130
-163 -37 -180 63 -314 260 -345 121 -20 271 24 328 95 l27 34 5 -52 5 -53 110
0 110 0 0 345 c0 395 -3 413 -71 489 -84 93 -251 138 -429 114z m275 -568 c0
-97 -49 -178 -133 -220 -84 -41 -192 -29 -231 26 -21 31 -21 112 0 145 26 39
62 52 200 74 71 11 130 23 133 25 2 3 10 5 18 5 9 0 13 -16 13 -55z"/>
<path d="M8413 1769 c-141 -27 -272 -140 -323 -276 -34 -92 -43 -151 -37 -253
12 -220 109 -350 313 -420 126 -44 237 -37 363 23 106 49 201 164 213 257 l3
25 -112 3 -112 3 -17 -33 c-38 -76 -93 -108 -185 -108 -107 0 -182 55 -217
159 -20 59 -15 212 9 277 53 141 182 208 296 153 40 -19 103 -89 103 -115 0
-6 7 -15 16 -18 25 -9 197 -7 213 3 22 14 0 76 -52 153 -95 140 -281 206 -474
167z"/>
<path d="M9368 1770 c-124 -22 -229 -103 -267 -205 -33 -88 -32 -90 82 -93
108 -3 98 -8 170 82 34 43 90 61 156 51 84 -13 136 -58 148 -128 8 -52 -13
-62 -182 -91 -242 -42 -308 -66 -368 -137 -93 -107 -87 -260 12 -359 65 -65
139 -93 251 -93 104 0 177 26 244 84 l46 41 0 -39 c0 -22 5 -44 12 -51 8 -8
47 -12 110 -12 94 0 98 1 104 24 3 13 4 167 2 342 -5 378 -8 394 -98 485 -73
75 -138 100 -275 104 -55 2 -121 0 -147 -5z m295 -522 c2 -7 1 -39 -4 -72 -15
-115 -98 -202 -203 -213 -103 -11 -166 32 -166 113 0 98 38 126 221 158 74 13
137 24 140 25 4 0 9 -5 12 -11z"/>
<path d="M4676 1750 c-28 -11 -71 -40 -98 -67 l-48 -47 0 46 c0 79 2 78 -121
78 l-109 0 0 -459 c0 -380 2 -461 14 -470 9 -8 50 -11 117 -9 l104 3 5 285 c5
270 6 287 27 327 39 73 94 101 204 105 88 3 89 4 89 117 0 81 -3 100 -16 105
-31 12 -120 5 -168 -14z"/>
<path d="M5904 1744 c3 -8 76 -112 162 -230 86 -118 154 -221 151 -228 -3 -8
-80 -113 -171 -235 -91 -121 -166 -223 -166 -226 0 -7 220 -6 246 1 14 4 62
62 124 150 56 79 105 144 110 144 8 0 57 -65 150 -203 29 -43 61 -82 71 -88
11 -5 72 -8 138 -7 l118 3 -116 155 c-64 85 -142 191 -173 235 l-57 79 23 30
c13 17 61 85 108 151 46 66 110 154 141 195 31 41 57 79 57 83 0 4 -59 6 -132
5 l-132 -3 -95 -142 c-53 -79 -99 -143 -102 -143 -3 0 -38 48 -79 108 -40 59
-87 124 -103 145 l-29 37 -125 0 c-109 0 -124 -2 -119 -16z"/>
<path d="M7676 1738 c-3 -13 -6 -214 -6 -448 0 -369 2 -428 16 -448 14 -20 23
-22 108 -22 67 0 97 4 105 14 8 9 10 140 9 467 l-3 454 -111 3 c-109 3 -112 2
-118 -20z"/>
</g>
</svg>
